<svg id="레이어_1" data-name="레이어 1" xmlns="http://www.w3.org/2000/svg" width="407.949" height="72" viewBox="0 0 407.949 72">
  <g id="그룹_868" data-name="그룹 868" transform="translate(0 0)">
    <path id="패스_276" data-name="패스 276" d="M0,28.759a28.3,28.3,0,0,1,2.331-11.6A27.078,27.078,0,0,1,8.647,8.03a28.819,28.819,0,0,1,9.469-5.9A33.116,33.116,0,0,1,29.924,0,30.09,30.09,0,0,1,44.612,3.436a35.568,35.568,0,0,1,11.123,10.3l-9.4,7.892a21.719,21.719,0,0,0-6.384-7.207,16.749,16.749,0,0,0-9.675-2.682,16.513,16.513,0,0,0-6.521,1.3,14.815,14.815,0,0,0-5.013,3.565,16.147,16.147,0,0,0-3.291,5.424,18.527,18.527,0,0,0-1.166,6.727,17.914,17.914,0,0,0,1.166,6.658,14.249,14.249,0,0,0,3.223,5.356,13.222,13.222,0,0,0,5.15,3.634,15.494,15.494,0,0,0,6.59,1.3,19.1,19.1,0,0,0,5.356-.686,15.511,15.511,0,0,0,4.327-1.988,18.992,18.992,0,0,0,3.565-3.154,33.952,33.952,0,0,0,2.948-4.19l9.2,8.167A34.943,34.943,0,0,1,44.955,53.945a30.378,30.378,0,0,1-15.031,3.573,33.147,33.147,0,0,1-11.808-2.125,28.616,28.616,0,0,1-9.469-5.9,25.959,25.959,0,0,1-6.316-9.127A27.822,27.822,0,0,1,0,28.759Z" transform="translate(0 0)" fill="#3659ea"/>
    <path id="패스_277" data-name="패스 277" d="M116.609,19.841H128.76v40.7H116.54l-1.1-3.3a21.433,21.433,0,0,1-6.453,3.573,25.342,25.342,0,0,1-7.481,1.1A23.86,23.86,0,0,1,92.725,60.2a20.548,20.548,0,0,1-6.864-4.533,19.973,19.973,0,0,1-4.464-6.8A21.727,21.727,0,0,1,79.82,40.3a22.391,22.391,0,0,1,1.714-8.852,20.382,20.382,0,0,1,4.6-6.864A20.781,20.781,0,0,1,93,20.047a22.818,22.818,0,0,1,8.441-1.577,26.651,26.651,0,0,1,7.481,1.028,21.1,21.1,0,0,1,6.453,3.223ZM103.635,50.109a9.108,9.108,0,0,0,6.933-2.743,9.876,9.876,0,0,0,2.605-7.07,10.508,10.508,0,0,0-2.605-7.275,9.316,9.316,0,0,0-6.933-2.674A9.211,9.211,0,0,0,96.7,33.021,9.979,9.979,0,0,0,94.1,40.3a9.383,9.383,0,0,0,2.605,7.07A9.007,9.007,0,0,0,103.635,50.109Z" transform="translate(-19.011 -4.399)" fill="#3659ea"/>
    <path id="패스_278" data-name="패스 278" d="M170.947,1.89V56.6H156.67V1.89Z" transform="translate(-37.315 -0.45)" fill="#3659ea"/>
    <path id="패스_279" data-name="패스 279" d="M221.2,19.841h12.151v40.7H221.13l-1.1-3.3a21.429,21.429,0,0,1-6.453,3.573,25.343,25.343,0,0,1-7.481,1.1,23.861,23.861,0,0,1-8.784-1.714,20.551,20.551,0,0,1-6.864-4.533,19.97,19.97,0,0,1-4.464-6.8A21.724,21.724,0,0,1,184.41,40.3a22.391,22.391,0,0,1,1.714-8.852,20.378,20.378,0,0,1,4.6-6.864,20.778,20.778,0,0,1,6.864-4.533,22.816,22.816,0,0,1,8.441-1.577,26.652,26.652,0,0,1,7.481,1.028,21.1,21.1,0,0,1,6.453,3.223ZM208.224,50.109a9.108,9.108,0,0,0,6.933-2.743,9.876,9.876,0,0,0,2.606-7.07,10.507,10.507,0,0,0-2.606-7.275,9.316,9.316,0,0,0-6.933-2.674,9.21,9.21,0,0,0-6.932,2.674,9.978,9.978,0,0,0-2.606,7.275,9.382,9.382,0,0,0,2.606,7.07A9.007,9.007,0,0,0,208.224,50.109Z" transform="translate(-43.922 -4.399)" fill="#3659ea"/>
    <path id="패스_280" data-name="패스 280" d="M287.394,32.322c-.892-.549-1.851-1.028-2.811-1.508-1.1-.411-2.125-.754-3.086-1.1-1.1-.274-2.057-.549-3.017-.754a22.546,22.546,0,0,0-2.6-.274c-3.223,0-4.808.823-4.808,2.4a1.862,1.862,0,0,0,1.1,1.783,9.723,9.723,0,0,0,2.88,1.1l6.932,2.057a33.407,33.407,0,0,1,5.9,2.674,14.82,14.82,0,0,1,4.053,3.908,10.847,10.847,0,0,1,1.508,5.7A13.02,13.02,0,0,1,292,54.62a13.541,13.541,0,0,1-3.985,4.4,19.967,19.967,0,0,1-5.9,2.537,31.39,31.39,0,0,1-7.207.823,33.487,33.487,0,0,1-19.488-6.041l5.013-9.812a14.674,14.674,0,0,0,2.879,1.783,19.247,19.247,0,0,0,3.428,1.508,21.69,21.69,0,0,0,3.641.96,16.164,16.164,0,0,0,3.5.411,9.115,9.115,0,0,0,4.122-.549,2.017,2.017,0,0,0,1.166-1.988,2.426,2.426,0,0,0-1.646-2.194,28.167,28.167,0,0,0-3.916-1.371,59.463,59.463,0,0,1-6.932-2.194,16.884,16.884,0,0,1-5.219-2.75,10.65,10.65,0,0,1-3.359-3.916,11.47,11.47,0,0,1-1.3-5.561,9.984,9.984,0,0,1,1.509-5.973,11.968,11.968,0,0,1,4.053-4.045,20.052,20.052,0,0,1,5.767-2.339,28.647,28.647,0,0,1,6.452-.754,27.4,27.4,0,0,1,9.744,1.646,46.544,46.544,0,0,1,7.687,3.71l-4.6,9.4Z" transform="translate(-60.835 -4.18)" fill="#3659ea"/>
    <path id="패스_281" data-name="패스 281" d="M347.883,20.27l5.561,21.278,5.973-21.278h12.768l-12.151,40.7H347.815l-6.727-25.4-6.727,25.4H322.141L309.99,20.27h12.768l5.9,21.278,5.63-21.278Z" transform="translate(-73.832 -4.828)" fill="#3659ea"/>
    <path id="패스_282" data-name="패스 282" d="M431.2,19.841H443.35v40.7H431.13l-1.1-3.3a21.44,21.44,0,0,1-6.452,3.573,25.35,25.35,0,0,1-7.482,1.1,23.861,23.861,0,0,1-8.784-1.714,20.55,20.55,0,0,1-6.864-4.533,19.974,19.974,0,0,1-4.464-6.8A21.715,21.715,0,0,1,394.41,40.3a22.389,22.389,0,0,1,1.714-8.852,20.38,20.38,0,0,1,4.6-6.864,20.777,20.777,0,0,1,6.864-4.533,22.82,22.82,0,0,1,8.441-1.577,26.648,26.648,0,0,1,7.48,1.028,21.1,21.1,0,0,1,6.453,3.223ZM418.225,50.109a9.107,9.107,0,0,0,6.932-2.743,9.877,9.877,0,0,0,2.605-7.07,10.509,10.509,0,0,0-2.605-7.275,9.315,9.315,0,0,0-6.932-2.674,9.212,9.212,0,0,0-6.933,2.674,9.979,9.979,0,0,0-2.605,7.275,9.384,9.384,0,0,0,2.605,7.07A9.008,9.008,0,0,0,418.225,50.109Z" transform="translate(-93.939 -4.399)" fill="#3659ea"/>
    <path id="패스_283" data-name="패스 283" d="M483.4,19.841l1.166,2.88a21.465,21.465,0,0,1,6.521-3.223,25.632,25.632,0,0,1,7.481-1.028,23.456,23.456,0,0,1,8.511,1.577,22.034,22.034,0,0,1,6.863,4.533,22.9,22.9,0,0,1,4.6,6.864,23.668,23.668,0,0,1,1.645,8.852,23,23,0,0,1-1.578,8.578,20.77,20.77,0,0,1-4.463,6.8,21.519,21.519,0,0,1-6.864,4.533,24.435,24.435,0,0,1-8.783,1.714,25.131,25.131,0,0,1-6.865-.891A21.9,21.9,0,0,1,485.526,58V76.4H471.25V19.841Zm12.974,30.267a9.109,9.109,0,0,0,6.933-2.743,9.875,9.875,0,0,0,2.606-7.07,10.507,10.507,0,0,0-2.606-7.275,9.317,9.317,0,0,0-6.933-2.674,9.21,9.21,0,0,0-6.932,2.674,9.977,9.977,0,0,0-2.606,7.275,9.381,9.381,0,0,0,2.606,7.07A9.006,9.006,0,0,0,496.375,50.109Z" transform="translate(-112.24 -4.399)" fill="#3659ea"/>
  </g>
</svg>
