<svg xmlns="http://www.w3.org/2000/svg" width="501.135" height="64" viewBox="0 0 501.135 64">
  <g id="레이어_1" data-name="레이어 1" transform="translate(0.01)">
    <g id="그룹_646" data-name="그룹 646" transform="translate(-0.01)">
      <path id="패스_224" data-name="패스 224" d="M0,32A29.718,29.718,0,0,1,2.78,19.091,30.374,30.374,0,0,1,10.29,8.928,34.568,34.568,0,0,1,21.56,2.358,41.983,41.983,0,0,1,35.59,0,37.952,37.952,0,0,1,53.06,3.818,41.42,41.42,0,0,1,66.28,15.272L55.1,24.06a24.821,24.821,0,0,0-7.59-8.02A20.946,20.946,0,0,0,36,13.064a20.714,20.714,0,0,0-7.75,1.451,17.633,17.633,0,0,0-5.96,3.968,17.985,17.985,0,0,0-3.92,6.036A19.4,19.4,0,0,0,16.98,32a18.769,18.769,0,0,0,1.39,7.412,15.636,15.636,0,0,0,3.84,5.961,15.758,15.758,0,0,0,6.12,4.052,19.545,19.545,0,0,0,7.84,1.451,23.813,23.813,0,0,0,6.37-.767,18.854,18.854,0,0,0,5.14-2.218,22.007,22.007,0,0,0,4.24-3.519,38.51,38.51,0,0,0,3.51-4.66L66.37,48.8a40.706,40.706,0,0,1-12.9,11.23A38.163,38.163,0,0,1,35.59,64a41.852,41.852,0,0,1-14.04-2.368,34.673,34.673,0,0,1-11.27-6.569A28.749,28.749,0,0,1,2.77,44.9,29.2,29.2,0,0,1-.01,31.986Z" transform="translate(0.01)" fill="#3659ea"/>
      <path id="패스_225" data-name="패스 225" d="M69.87,62.39,91.91,1.71H113.3l22.04,60.671H118.36l-6.2-16.972L91.1,50.817,86.86,62.39H69.88ZM96.32,36.428l11.43-2.965-5.14-14.24Z" transform="translate(0.01)" fill="#3659ea"/>
      <path id="패스_226" data-name="패스 226" d="M142.68,1.71h16.98V49.3h31.1V62.39H142.68Z" transform="translate(-10.053)" fill="#3659ea"/>
      <path id="패스_227" data-name="패스 227" d="M194.02,62.39,216.07,1.71h21.39L259.5,62.381H242.52l-6.2-16.972-21.06,5.409L211.02,62.39H194.04Zm26.45-25.962,11.43-2.965-5.14-14.24Z" transform="translate(-14.18)" fill="#3659ea"/>
      <path id="패스_228" data-name="패스 228" d="M272.16,42.627A34.065,34.065,0,0,0,282.28,48.2a31.7,31.7,0,0,0,11.92,2.059,12.148,12.148,0,0,0,5.96-1.142,3.471,3.471,0,0,0,1.88-3.21,4.888,4.888,0,0,0-2.12-4.052,26.413,26.413,0,0,0-7.27-2.826c-2.94-.767-5.88-1.6-8.9-2.517A30.742,30.742,0,0,1,275.42,33a18.259,18.259,0,0,1-6.12-5.652,14.831,14.831,0,0,1-2.45-8.861,16.068,16.068,0,0,1,2.04-8.328,16.363,16.363,0,0,1,5.47-5.727,27.167,27.167,0,0,1,8.08-3.284A44.146,44.146,0,0,1,292.16.08a49.477,49.477,0,0,1,6.86.459,48.77,48.77,0,0,1,6.37,1.376c2.04.683,4.08,1.525,6.2,2.442,1.96.992,4.08,2.143,6.29,3.509l-6.69,12.221a34.893,34.893,0,0,0-8.65-4.426,36.554,36.554,0,0,0-9.96-1.759c-1.14,0-2.2,0-3.18.075a11.321,11.321,0,0,0-2.69.683,5.47,5.47,0,0,0-1.8,1.3,2.673,2.673,0,0,0-.73,1.909,3.748,3.748,0,0,0,.41,1.984,3.011,3.011,0,0,0,1.39,1.684,9.989,9.989,0,0,0,3.1,1.525,35.729,35.729,0,0,0,5.31,1.6c3.43.917,6.78,1.909,9.88,2.826a39.641,39.641,0,0,1,8,3.743,17.45,17.45,0,0,1,5.39,5.652,16.859,16.859,0,0,1,1.96,8.478,15.99,15.99,0,0,1-1.96,8.253,17.329,17.329,0,0,1-5.47,5.8,26.633,26.633,0,0,1-8.33,3.434,46.025,46.025,0,0,1-10.53,1.142A48.448,48.448,0,0,1,278.15,61.7a52.5,52.5,0,0,1-13.14-6.344L272.19,42.6Z" transform="translate(-18.934)" fill="#3659ea"/>
      <path id="패스_229" data-name="패스 229" d="M342.28,1.71,350.61,36.8,358.45,1.71h16.57l7.43,35.706L391.18,1.71h16.9L391.59,62.38h-16.9l-8.08-38.289L358.69,62.38H341.88L325.39,1.71h16.9Z" transform="translate(-24.692 0)" fill="#3659ea"/>
      <path id="패스_230" data-name="패스 230" d="M406.03,62.39,428.07,1.71h21.39L471.5,62.381H454.52l-6.2-16.972-21.06,5.409L423.02,62.39H406.04Zm26.45-25.962,11.43-2.965-5.14-14.24-6.29,17.205Z" transform="translate(-34.365)" fill="#3659ea"/>
      <path id="패스_231" data-name="패스 231" d="M478.84,1.71h36.49a30.8,30.8,0,0,1,8,1.063,20.457,20.457,0,0,1,6.37,3.2,16.1,16.1,0,0,1,4.25,5.632,20.51,20.51,0,0,1,1.55,8.066,21.973,21.973,0,0,1-1.22,7.768,13.411,13.411,0,0,1-3.67,5.483,18.721,18.721,0,0,1-6.04,3.73,41.211,41.211,0,0,1-8.41,2.508l-20.33,4.187V62.38H478.85V1.71ZM518.6,20.053a5.421,5.421,0,0,0-1.47-3.73,5.821,5.821,0,0,0-4.08-1.52H495.83V29.49l15.51-2.667c2.78-.457,4.65-1.3,5.72-2.508a6.583,6.583,0,0,0,1.55-4.262Z" transform="translate(-34.365)" fill="#3659ea"/>
    </g>
  </g>
</svg>
