<svg xmlns="http://www.w3.org/2000/svg" width="1232" height="625" viewBox="0 0 1232 625">
  <g id="그룹_852" data-name="그룹 852" transform="translate(-344 -5267)">
    <g id="사각형_223" data-name="사각형 223" transform="translate(344 5267)" fill="rgba(119,119,119,0.3)" stroke="#fff" stroke-width="1">
      <rect width="1232" height="625" rx="20" stroke="none"/>
      <rect x="0.5" y="0.5" width="1231" height="624" rx="19.5" fill="none"/>
    </g>
    <g id="그룹_848" data-name="그룹 848" transform="translate(64 165)">
      <g id="text_box" data-name="text box" transform="translate(344 5241)">
        <path id="사각형_219" data-name="사각형 219" d="M10,0H494a10,10,0,0,1,10,10V47a0,0,0,0,1,0,0H0a0,0,0,0,1,0,0V10A10,10,0,0,1,10,0Z" fill="#fff"/>
        <text id="_150_000_000_CLS" data-name="150,000,000 CLS" transform="translate(175 31)" fill="#3659ea" font-size="20" font-family="NotoSans-Bold, Noto Sans" font-weight="700"><tspan x="0" y="0">150,000,000 CLS</tspan></text>
      </g>
      <g id="그룹_840" data-name="그룹 840" transform="translate(66)">
        <text id="_150_million_CLS_for_Initial_Liquidity_and_Treasury_for_Calaswap_Service." data-name="150 million CLS for Initial Liquidity
and Treasury for Calaswap Service." transform="translate(374 5341)" fill="#fff" font-size="20" font-family="NotoSans, Noto Sans"><tspan x="0" y="0">150 million CLS for </tspan><tspan y="0" font-family="NotoSans-Bold, Noto Sans" font-weight="700">Initial Liquidity</tspan><tspan x="0" y="32">and Treasury for Calaswap Service.</tspan></text>
        <g id="그룹_839" data-name="그룹 839" transform="translate(3474 5203) rotate(90)">
          <rect id="사각형_46" data-name="사각형 46" width="12" height="12" transform="translate(125 3120) rotate(-90)" fill="none"/>
          <path id="next_ars" d="M12.389,8.982,6.716,13.945A1.035,1.035,0,0,1,5,13.166V3.239A1.035,1.035,0,0,1,6.717,2.46l5.671,4.963a1.035,1.035,0,0,1,0,1.559Z" transform="translate(122.797 3122.742) rotate(-90)" fill="#f8f8f8"/>
        </g>
      </g>
      <g id="사각형_221" data-name="사각형 221" transform="translate(344 5241)" fill="none" stroke="#fff" stroke-width="1">
        <rect width="504" height="170" rx="10" stroke="none"/>
        <rect x="0.5" y="0.5" width="503" height="169" rx="9.5" fill="none"/>
      </g>
    </g>
    <g id="그룹_849" data-name="그룹 849" transform="translate(-64 165)">
      <g id="그룹_844" data-name="그룹 844" transform="translate(-52)">
        <g id="그룹_823" data-name="그룹 823" transform="translate(0 -27)">
          <g id="text_box-2" data-name="text box" transform="translate(1176 5438)">
            <path id="패스_215" data-name="패스 215" d="M5.263,0H394.737C397.644,0,400,3.582,400,8V39c0,4.418-2.356,8-5.263,8H5.263C2.356,47,0,43.418,0,39V8C0,3.582,2.356,0,5.263,0Z" fill="rgba(137,144,159,0.5)"/>
          </g>
          <text id="Farm_Launchpools" data-name="Farm / Launchpools" transform="translate(1196 5469)" fill="#fff" font-size="20" font-family="NotoSans, Noto Sans"><tspan x="0" y="0">Farm / Launchpools</tspan></text>
          <text id="_80.00_per_block" data-name="80.00%  per block" transform="translate(1556 5469)" fill="#fff" font-size="20" font-family="NotoSans-Bold, Noto Sans" font-weight="700"><tspan x="-148.344" y="0">80.00% </tspan><tspan y="0" xml:space="preserve" font-size="16" font-family="NotoSans, Noto Sans" font-weight="400"> per block</tspan></text>
        </g>
      </g>
      <g id="그룹_845" data-name="그룹 845" transform="translate(-52)">
        <g id="그룹_822" data-name="그룹 822" transform="translate(0 -27)">
          <g id="text_box-3" data-name="text box" transform="translate(1176 5501)">
            <path id="패스_215-2" data-name="패스 215" d="M5.263,0H394.737C397.644,0,400,3.582,400,8V39c0,4.418-2.356,8-5.263,8H5.263C2.356,47,0,43.418,0,39V8C0,3.582,2.356,0,5.263,0Z" fill="rgba(137,144,159,0.5)"/>
          </g>
          <text id="Referral" transform="translate(1196 5532)" fill="#fff" font-size="20" font-family="NotoSans, Noto Sans"><tspan x="0" y="0">Referral</tspan></text>
          <text id="_5.00_per_block" data-name="5.00%  per block" transform="translate(1556 5532)" fill="#fff" font-size="20" font-family="NotoSans-Bold, Noto Sans" font-weight="700"><tspan x="-136.904" y="0">5.00% </tspan><tspan y="0" xml:space="preserve" font-size="16" font-family="NotoSans, Noto Sans" font-weight="400"> per block</tspan></text>
        </g>
      </g>
      <g id="그룹_846" data-name="그룹 846" transform="translate(-52)">
        <g id="그룹_821" data-name="그룹 821" transform="translate(0 -27)">
          <g id="text_box-4" data-name="text box" transform="translate(1176 5564)">
            <path id="패스_215-3" data-name="패스 215" d="M5.263,0H394.737C397.644,0,400,3.582,400,8V39c0,4.418-2.356,8-5.263,8H5.263C2.356,47,0,43.418,0,39V8C0,3.582,2.356,0,5.263,0Z" fill="rgba(137,144,159,0.5)"/>
          </g>
          <text id="SAFU" transform="translate(1196 5595)" fill="#fff" font-size="20" font-family="NotoSans, Noto Sans"><tspan x="0" y="0">SAFU</tspan></text>
          <text id="_1.00_per_block" data-name="1.00%  per block" transform="translate(1556 5595)" fill="#fff" font-size="20" font-family="NotoSans-Bold, Noto Sans" font-weight="700"><tspan x="-136.904" y="0">1.00% </tspan><tspan y="0" xml:space="preserve" font-size="16" font-family="NotoSans, Noto Sans" font-weight="400"> per block</tspan></text>
        </g>
      </g>
      <g id="그룹_847" data-name="그룹 847" transform="translate(-52)">
        <g id="그룹_820" data-name="그룹 820" transform="translate(0 -27)">
          <g id="text_box-5" data-name="text box" transform="translate(1176 5627)">
            <path id="패스_215-4" data-name="패스 215" d="M5.263,0H394.737C397.644,0,400,3.582,400,8V39c0,4.418-2.356,8-5.263,8H5.263C2.356,47,0,43.418,0,39V8C0,3.582,2.356,0,5.263,0Z" fill="rgba(137,144,159,0.5)"/>
          </g>
          <text id="Team" transform="translate(1196 5658)" fill="#fff" font-size="20" font-family="NotoSans, Noto Sans"><tspan x="0" y="0">Team</tspan></text>
          <text id="_14.00_per_block" data-name="14.00%  per block" transform="translate(1556 5658)" fill="#fff" font-size="20" font-family="NotoSans-Bold, Noto Sans" font-weight="700"><tspan x="-148.344" y="0">14.00% </tspan><tspan y="0" xml:space="preserve" font-size="16" font-family="NotoSans, Noto Sans" font-weight="400"> per block</tspan></text>
        </g>
      </g>
      <g id="그룹_841" data-name="그룹 841" transform="translate(767)">
        <text id="As_initial_conditions_20_CLS_tokens_will_be_distributed_per_block." data-name="As initial conditions, 20 CLS tokens will be
distributed per block." transform="translate(374 5341)" fill="#fff" font-size="20" font-family="NotoSans, Noto Sans"><tspan x="0" y="0">As initial conditions, 20 CLS tokens will be</tspan><tspan x="0" y="32">distributed per block.</tspan></text>
        <g id="그룹_839-2" data-name="그룹 839" transform="translate(3474 5203) rotate(90)">
          <rect id="사각형_46-2" data-name="사각형 46" width="12" height="12" transform="translate(125 3120) rotate(-90)" fill="none"/>
          <path id="next_ars-2" data-name="next_ars" d="M12.389,8.982,6.716,13.945A1.035,1.035,0,0,1,5,13.166V3.239A1.035,1.035,0,0,1,6.717,2.46l5.671,4.963a1.035,1.035,0,0,1,0,1.559Z" transform="translate(122.797 3122.742) rotate(-90)" fill="#f8f8f8"/>
        </g>
      </g>
      <g id="text_box-6" data-name="text box" transform="translate(1072 5241)">
        <path id="사각형_219-2" data-name="사각형 219" d="M10,0H494a10,10,0,0,1,10,10V47a0,0,0,0,1,0,0H0a0,0,0,0,1,0,0V10A10,10,0,0,1,10,0Z" fill="#fff"/>
        <text id="_2_850_000_000_CLS" data-name="2,850,000,000 CLS" transform="translate(166 31)" fill="#3659ea" font-size="20" font-family="NotoSans-Bold, Noto Sans" font-weight="700"><tspan x="0" y="0">2,850,000,000 CLS</tspan></text>
      </g>
      <g id="사각형_222" data-name="사각형 222" transform="translate(1072 5241)" fill="none" stroke="#fff" stroke-width="1">
        <rect width="504" height="438" rx="10" stroke="none"/>
        <rect x="0.5" y="0.5" width="503" height="437" rx="9.5" fill="none"/>
      </g>
    </g>
    <text id="_3_000_000_000_CLS" data-name="3,000,000,000 CLS" transform="translate(821 5349)" fill="#fff" font-size="32" font-family="NotoSans-ExtraBold, Noto Sans" font-weight="800"><tspan x="0" y="0">3,000,000,000 CLS</tspan></text>
  </g>
</svg>
