<svg xmlns="http://www.w3.org/2000/svg" xmlns:xlink="http://www.w3.org/1999/xlink" width="184.306" height="32" viewBox="0 0 184.306 32">
  <defs>
    <linearGradient id="linear-gradient" x1="-0.053" y1="0.5" x2="1.469" y2="0.5" gradientUnits="objectBoundingBox">
      <stop offset="0" stop-color="#3d5eff"/>
      <stop offset="0.7" stop-color="#a4b1ff"/>
      <stop offset="1" stop-color="#bac7ff"/>
    </linearGradient>
    <linearGradient id="linear-gradient-2" x1="0.5" y1="0.374" x2="0.5" y2="0.789" xlink:href="#linear-gradient"/>
    <linearGradient id="linear-gradient-3" x1="0.895" y1="0.5" x2="0.031" y2="0.5" gradientUnits="objectBoundingBox">
      <stop offset="0" stop-color="#3d5eff"/>
      <stop offset="1" stop-color="#a4b1ff"/>
    </linearGradient>
    <linearGradient id="linear-gradient-4" x1="0.5" y1="1.006" x2="0.5" y2="0.032" xlink:href="#linear-gradient"/>
  </defs>
  <g id="레이어_1" data-name="레이어 1" transform="translate(-0.153)">
    <g id="레이어_1-2" data-name="레이어 1" transform="translate(0.153)">
      <g id="그룹_871" data-name="그룹 871">
        <g id="그룹_869" data-name="그룹 869">
          <path id="패스_284" data-name="패스 284" d="M55.263,77.83l-5.2,3-.014-.008V86.85l5.213-3.01,3.43-1.98V75.85Z" transform="translate(-36.193 -54.85)" fill="url(#linear-gradient)"/>
          <path id="패스_285" data-name="패스 285" d="M58.694,4.992h0L55.263,3.01,50.05,0V25.973l.014.008,5.2-3V9.02L58.694,11h0V27.011L63.907,24V8Z" transform="translate(-36.193)" fill="url(#linear-gradient-2)"/>
          <path id="패스_286" data-name="패스 286" d="M5.213,18.863h0l3.43-1.982V10.87l-3.43,1.982h0L0,15.862v16l5.213,3.01h0l3.43,1.98V30.84l-3.43-1.98h0Z" transform="translate(0 -7.86)" fill="url(#linear-gradient-3)"/>
          <path id="패스_287" data-name="패스 287" d="M31.22,3.01V28.99L36.433,32V0Z" transform="translate(-22.576)" fill="url(#linear-gradient-4)"/>
        </g>
        <g id="그룹_870" data-name="그룹 870" transform="translate(38.706 5.598)">
          <path id="패스_288" data-name="패스 288" d="M139.806,30.483a10.055,10.055,0,0,1,.833-4.139,9.735,9.735,0,0,1,2.254-3.259,10.253,10.253,0,0,1,3.381-2.107,11.808,11.808,0,0,1,4.214-.759,10.75,10.75,0,0,1,5.241,1.227,12.679,12.679,0,0,1,3.967,3.674l-3.356,2.816a7.752,7.752,0,0,0-2.279-2.572,5.975,5.975,0,0,0-3.455-.955,5.876,5.876,0,0,0-2.326.465,5.259,5.259,0,0,0-1.789,1.274,5.834,5.834,0,0,0-1.177,1.935,6.608,6.608,0,0,0-.415,2.4,6.385,6.385,0,0,0,.415,2.375,5.051,5.051,0,0,0,1.152,1.91,4.738,4.738,0,0,0,1.838,1.3,5.526,5.526,0,0,0,2.351.465,6.891,6.891,0,0,0,1.91-.244,5.473,5.473,0,0,0,1.542-.712,6.854,6.854,0,0,0,1.274-1.127,11.812,11.812,0,0,0,1.052-1.5l3.284,2.915a12.465,12.465,0,0,1-3.871,3.6,10.862,10.862,0,0,1-5.366,1.274,11.809,11.809,0,0,1-4.214-.759,10.253,10.253,0,0,1-3.381-2.107,9.262,9.262,0,0,1-2.254-3.259,9.945,9.945,0,0,1-.833-4.139Z" transform="translate(-139.8 -20.22)" fill="#3659ea"/>
          <path id="패스_289" data-name="패스 289" d="M231.332,38.857h4.336V53.384h-4.361l-.393-1.177a7.545,7.545,0,0,1-2.3,1.274,9.072,9.072,0,0,1-2.669.393,8.539,8.539,0,0,1-3.134-.612,7.384,7.384,0,0,1-2.45-1.617,7.091,7.091,0,0,1-1.592-2.425,7.726,7.726,0,0,1-.565-3.062A8,8,0,0,1,218.812,43a7.458,7.458,0,0,1,4.092-4.067,8.118,8.118,0,0,1,3.012-.562,9.434,9.434,0,0,1,2.669.368,7.5,7.5,0,0,1,2.3,1.152l.44-1.03Zm-4.629,10.8a3.248,3.248,0,0,0,2.475-.98,3.524,3.524,0,0,0,.93-2.522,3.754,3.754,0,0,0-.93-2.6,3.323,3.323,0,0,0-2.475-.955,3.289,3.289,0,0,0-2.475.955,3.561,3.561,0,0,0-.93,2.6,3.345,3.345,0,0,0,.93,2.522A3.211,3.211,0,0,0,226.7,49.661Z" transform="translate(-196.494 -33.345)" fill="#3659ea"/>
          <path id="패스_290" data-name="패스 290" d="M298.774,22.08V41.6H293.68V22.08Z" transform="translate(-251.076 -21.565)" fill="#3659ea"/>
          <path id="패스_291" data-name="패스 291" d="M334.042,38.857h4.336V53.384h-4.361l-.393-1.177a7.545,7.545,0,0,1-2.3,1.274,9.072,9.072,0,0,1-2.669.393,8.539,8.539,0,0,1-3.134-.612,7.384,7.384,0,0,1-2.45-1.617,7.091,7.091,0,0,1-1.592-2.425,7.726,7.726,0,0,1-.565-3.062A8,8,0,0,1,321.522,43a7.458,7.458,0,0,1,4.092-4.067,8.118,8.118,0,0,1,3.012-.562,9.434,9.434,0,0,1,2.669.368,7.5,7.5,0,0,1,2.3,1.152l.44-1.03Zm-4.629,10.8a3.248,3.248,0,0,0,2.475-.98,3.524,3.524,0,0,0,.93-2.522,3.754,3.754,0,0,0-.93-2.6,3.323,3.323,0,0,0-2.475-.955,3.289,3.289,0,0,0-2.475.955,3.561,3.561,0,0,0-.93,2.6,3.345,3.345,0,0,0,.93,2.522A3.211,3.211,0,0,0,329.412,49.661Z" transform="translate(-270.767 -33.345)" fill="#3659ea"/>
          <path id="패스_292" data-name="패스 292" d="M402.07,42.731c-.318-.2-.662-.368-1.005-.54-.393-.147-.759-.269-1.1-.393-.393-.1-.734-.2-1.077-.269a7.876,7.876,0,0,0-.93-.1c-1.152,0-1.714.293-1.714.858a.664.664,0,0,0,.393.637,3.5,3.5,0,0,0,1.03.393l2.475.734a11.8,11.8,0,0,1,2.107.955,5.311,5.311,0,0,1,1.445,1.4,3.864,3.864,0,0,1,.54,2.032,4.633,4.633,0,0,1-.515,2.254,4.856,4.856,0,0,1-1.42,1.567,7.029,7.029,0,0,1-2.107.905,11.154,11.154,0,0,1-2.572.293,12.5,12.5,0,0,1-3.577-.515A12.629,12.629,0,0,1,390.66,51.3l1.789-3.5a5.3,5.3,0,0,0,1.03.637,6.84,6.84,0,0,0,1.224.54,7.929,7.929,0,0,0,1.3.343,5.836,5.836,0,0,0,1.249.147,3.231,3.231,0,0,0,1.47-.2.722.722,0,0,0,.415-.712.868.868,0,0,0-.587-.784,10.209,10.209,0,0,0-1.4-.49,21.164,21.164,0,0,1-2.475-.784,6.147,6.147,0,0,1-1.861-.98,3.853,3.853,0,0,1-1.2-1.4,4.1,4.1,0,0,1-.465-1.985,3.547,3.547,0,0,1,.54-2.132,4.319,4.319,0,0,1,1.445-1.445,7.083,7.083,0,0,1,2.057-.833,10.2,10.2,0,0,1,2.3-.269,9.8,9.8,0,0,1,3.477.587,16.864,16.864,0,0,1,2.744,1.323l-1.642,3.356Z" transform="translate(-321.206 -32.687)" fill="#3659ea"/>
          <path id="패스_293" data-name="패스 293" d="M457.779,40.13l1.985,7.594L461.9,40.13h4.557l-4.336,14.527h-4.361l-2.4-9.065-2.4,9.065H448.6L444.26,40.13h4.557l2.107,7.594,2.007-7.594h4.851Z" transform="translate(-359.966 -34.618)" fill="#3659ea"/>
          <path id="패스_294" data-name="패스 294" d="M540.272,38.857h4.336V53.384h-4.361l-.393-1.177a7.545,7.545,0,0,1-2.3,1.274,9.071,9.071,0,0,1-2.669.393,8.538,8.538,0,0,1-3.134-.612,7.384,7.384,0,0,1-2.45-1.617A7.091,7.091,0,0,1,527.7,49.22a7.725,7.725,0,0,1-.565-3.062A8,8,0,0,1,527.752,43a7.458,7.458,0,0,1,4.092-4.067,8.118,8.118,0,0,1,3.012-.562,9.434,9.434,0,0,1,2.669.368,7.5,7.5,0,0,1,2.3,1.152l.44-1.03Zm-4.629,10.8a3.247,3.247,0,0,0,2.475-.98,3.524,3.524,0,0,0,.93-2.522,3.754,3.754,0,0,0-.93-2.6,3.323,3.323,0,0,0-2.475-.955,3.289,3.289,0,0,0-2.475.955,3.561,3.561,0,0,0-.93,2.6,3.345,3.345,0,0,0,.93,2.522A3.211,3.211,0,0,0,535.643,49.661Z" transform="translate(-419.899 -33.345)" fill="#3659ea"/>
          <path id="패스_295" data-name="패스 295" d="M606.953,38.85l.415,1.03a7.687,7.687,0,0,1,2.328-1.152,9.173,9.173,0,0,1,2.669-.368,8.4,8.4,0,0,1,3.037.562,7.929,7.929,0,0,1,2.45,1.617,8.149,8.149,0,0,1,1.642,2.45,8.4,8.4,0,0,1,.587,3.159,8.248,8.248,0,0,1-.562,3.062,7.473,7.473,0,0,1-1.592,2.425,7.647,7.647,0,0,1-2.45,1.617,8.7,8.7,0,0,1-3.134.612,8.917,8.917,0,0,1-2.45-.318,7.807,7.807,0,0,1-2.179-1.077v6.564H602.62V38.85h4.336Zm4.629,10.8a3.248,3.248,0,0,0,2.475-.98,3.524,3.524,0,0,0,.93-2.522,3.754,3.754,0,0,0-.93-2.6,3.323,3.323,0,0,0-2.475-.955,3.289,3.289,0,0,0-2.475.955,3.561,3.561,0,0,0-.93,2.6,3.345,3.345,0,0,0,.93,2.522A3.211,3.211,0,0,0,611.582,49.653Z" transform="translate(-474.482 -33.338)" fill="#3659ea"/>
        </g>
      </g>
    </g>
  </g>
</svg>
