<svg id="레이어_1" data-name="레이어 1" xmlns="http://www.w3.org/2000/svg" xmlns:xlink="http://www.w3.org/1999/xlink" width="184.306" height="32" viewBox="0 0 184.306 32">
  <defs>
    <linearGradient id="linear-gradient" x1="-0.053" y1="0.5" x2="1.469" y2="0.5" gradientUnits="objectBoundingBox">
      <stop offset="0" stop-color="#3d5eff"/>
      <stop offset="0.7" stop-color="#a4b1ff"/>
      <stop offset="1" stop-color="#bac7ff"/>
    </linearGradient>
    <linearGradient id="linear-gradient-2" x1="0.5" y1="0.374" x2="0.5" y2="0.789" xlink:href="#linear-gradient"/>
    <linearGradient id="linear-gradient-3" x1="0.895" y1="0.5" x2="0.031" y2="0.5" gradientUnits="objectBoundingBox">
      <stop offset="0" stop-color="#3d5eff"/>
      <stop offset="1" stop-color="#a4b1ff"/>
    </linearGradient>
    <linearGradient id="linear-gradient-4" x1="0.5" y1="1.006" x2="0.5" y2="0.032" xlink:href="#linear-gradient"/>
  </defs>
  <g id="그룹_655" data-name="그룹 655">
    <g id="그룹_653" data-name="그룹 653">
      <path id="패스_244" data-name="패스 244" d="M55.263,77.83l-5.2,3-.014-.008V86.85l5.213-3.01,3.43-1.98V75.85Z" transform="translate(-36.193 -54.85)" fill="url(#linear-gradient)"/>
      <path id="패스_245" data-name="패스 245" d="M58.694,4.992h0L55.263,3.01,50.05,0V25.973l.014.008,5.2-3V9.02L58.694,11h0V27.011L63.907,24V8Z" transform="translate(-36.193)" fill="url(#linear-gradient-2)"/>
      <path id="패스_246" data-name="패스 246" d="M5.213,18.863h0l3.43-1.982V10.87l-3.43,1.982h0L0,15.862v16l5.213,3.01h0l3.43,1.98V30.84l-3.43-1.98h0Z" transform="translate(0 -7.86)" fill="url(#linear-gradient-3)"/>
      <path id="패스_247" data-name="패스 247" d="M31.22,3.01V28.99L36.433,32V0Z" transform="translate(-22.576)" fill="url(#linear-gradient-4)"/>
    </g>
    <g id="그룹_654" data-name="그룹 654" transform="translate(38.711 7.323)">
      <path id="패스_248" data-name="패스 248" d="M139.82,35.75A9.114,9.114,0,0,1,140.576,32a8.761,8.761,0,0,1,2.043-2.951,9.28,9.28,0,0,1,3.062-1.908,10.728,10.728,0,0,1,3.818-.689,9.748,9.748,0,0,1,4.751,1.11,11.531,11.531,0,0,1,3.6,3.328l-3.04,2.553a7.029,7.029,0,0,0-2.065-2.331,5.421,5.421,0,0,0-3.129-.867,5.35,5.35,0,0,0-2.11.421,4.756,4.756,0,0,0-1.62,1.155,5.249,5.249,0,0,0-1.066,1.753,5.991,5.991,0,0,0-.377,2.176,5.8,5.8,0,0,0,.377,2.154,4.556,4.556,0,0,0,1.044,1.73,4.3,4.3,0,0,0,1.664,1.177,5.02,5.02,0,0,0,2.132.421,6.159,6.159,0,0,0,1.73-.221,4.981,4.981,0,0,0,1.4-.642,6.07,6.07,0,0,0,1.155-1.022,11.486,11.486,0,0,0,.955-1.354l2.974,2.641a11.3,11.3,0,0,1-3.508,3.261,9.827,9.827,0,0,1-4.862,1.155,10.667,10.667,0,0,1-3.818-.689,9.3,9.3,0,0,1-3.062-1.908,8.406,8.406,0,0,1-2.043-2.951,9.013,9.013,0,0,1-.756-3.752Z" transform="translate(-139.82 -26.45)" fill="#3659ea"/>
      <path id="패스_249" data-name="패스 249" d="M208.433,45.829l5.991-17.689h5.814l5.991,17.689h-4.615l-1.686-4.95L214.2,42.454l-1.155,3.375H208.43Zm7.19-7.569,3.106-.867-1.4-4.15Z" transform="translate(-189.434 -27.672)" fill="#3659ea"/>
      <path id="패스_250" data-name="패스 250" d="M279.94,28.14h4.618V42.011h8.455v3.818H279.94Z" transform="translate(-241.146 -27.672)" fill="#3659ea"/>
      <path id="패스_251" data-name="패스 251" d="M330.353,45.829l5.991-17.689h5.814l5.991,17.689h-4.615l-1.686-4.95-5.726,1.575-1.155,3.375H330.35Zm7.19-7.569,3.106-.867-1.4-4.15Z" transform="translate(-277.599 -27.672)" fill="#3659ea"/>
      <path id="패스_252" data-name="패스 252" d="M401.987,38.878a9.125,9.125,0,0,0,2.752,1.62,8.172,8.172,0,0,0,3.239.6,3.1,3.1,0,0,0,1.62-.332,1.018,1.018,0,0,0,.509-.933,1.453,1.453,0,0,0-.576-1.177,6.985,6.985,0,0,0-1.974-.822c-.8-.221-1.6-.465-2.42-.734a8.047,8.047,0,0,1-2.265-1.022,5.125,5.125,0,0,1-1.664-1.642,4.527,4.527,0,0,1-.664-2.575,4.943,4.943,0,0,1,.554-2.42,4.649,4.649,0,0,1,1.487-1.664,7.1,7.1,0,0,1,2.2-.955,11.212,11.212,0,0,1,2.641-.31,12.723,12.723,0,0,1,1.863.133,12.191,12.191,0,0,1,1.73.4c.554.2,1.11.443,1.686.712.532.288,1.11.62,1.708,1.022l-1.819,3.552a8.678,8.678,0,0,0-5.061-1.8c-.31,0-.6,0-.867.022a2.95,2.95,0,0,0-.734.2,1.487,1.487,0,0,0-.487.377.81.81,0,0,0-.2.554,1.166,1.166,0,0,0,.111.576.868.868,0,0,0,.377.487,2.645,2.645,0,0,0,.844.443,9.255,9.255,0,0,0,1.442.465c.933.266,1.841.554,2.686.822a10.369,10.369,0,0,1,2.176,1.088,4.936,4.936,0,0,1,1.465,1.642,5.19,5.19,0,0,1,.532,2.464,4.712,4.712,0,0,1-2.018,4.084,7.014,7.014,0,0,1-2.265,1,11.8,11.8,0,0,1-2.863.332,12.412,12.412,0,0,1-4.128-.664,14.009,14.009,0,0,1-3.574-1.841l1.952-3.707Z" transform="translate(-327.987 -26.493)" fill="#3659ea"/>
      <path id="패스_253" data-name="패스 253" d="M463.96,28.14l2.265,10.233,2.132-10.233h4.5l2.021,10.41,2.376-10.41h4.593l-4.482,17.689h-4.593l-2.2-11.163-2.154,11.163h-4.571L459.37,28.14h4.593Z" transform="translate(-370.898 -27.672)" fill="#3659ea"/>
      <path id="패스_254" data-name="패스 254" d="M538.553,45.829l5.991-17.689h5.814l5.991,17.689h-4.615l-1.686-4.95-5.726,1.575-1.155,3.375H538.55Zm7.19-7.569,3.106-.867-1.4-4.15Z" transform="translate(-428.156 -27.672)" fill="#3659ea"/>
      <path id="패스_255" data-name="패스 255" d="M610.053,28.14h9.92a7.829,7.829,0,0,1,2.176.31,5.354,5.354,0,0,1,1.73.933,4.675,4.675,0,0,1,1.154,1.642,6.364,6.364,0,0,1,.421,2.353,6.787,6.787,0,0,1-.332,2.265,3.9,3.9,0,0,1-1,1.6,5.061,5.061,0,0,1-1.642,1.088,10.764,10.764,0,0,1-2.287.734l-5.526,1.221v5.548H610.05V28.14Zm10.809,5.349a1.651,1.651,0,0,0-.4-1.088,1.522,1.522,0,0,0-1.11-.443h-4.685v4.283l4.217-.778a2.472,2.472,0,0,0,1.553-.734,2,2,0,0,0,.421-1.243Z" transform="translate(-479.86 -27.672)" fill="#3659ea"/>
    </g>
  </g>
</svg>
