<svg xmlns="http://www.w3.org/2000/svg" width="945" height="1041" viewBox="0 0 945 1041">
  <g id="그룹_564" data-name="그룹 564" transform="translate(-480 -6255)">
    <text id="Roadmap" transform="translate(845 6306)" fill="#f8f8f8" font-size="48" font-family="NotoSans-ExtraBold, Noto Sans" font-weight="800"><tspan x="0" y="0">Roadmap</tspan></text>
    <text id="Calaswap_Service_Development" data-name="Calaswap Service Development" transform="translate(1042 6604)" fill="#fff" font-size="24" font-family="NotoSans-Bold, Noto Sans" font-weight="700"><tspan x="0" y="0">Calaswap Service Development</tspan></text>
    <text id="Calaswap_Beta_Version_Eisclosure" data-name="Calaswap Beta Version Eisclosure" transform="translate(878 6768)" fill="#fff" font-size="24" font-family="NotoSans-Bold, Noto Sans" font-weight="700" opacity="0.5"><tspan x="-397.272" y="0">Calaswap Beta Version Eisclosure</tspan></text>
    <text id="Calaswap_Launch_Farms_Feature_Open_Beta_Tester_Airdrop_Distribution" data-name="Calaswap Launch
Farms Feature Open
Beta Tester Airdrop Distribution" transform="translate(1042 6900)" fill="#fff" font-size="24" font-family="NotoSans-Bold, Noto Sans" font-weight="700" opacity="0.5"><tspan x="0" y="0">Calaswap Launch</tspan><tspan x="0" y="32">Farms Feature Open</tspan><tspan x="0" y="64">Beta Tester Airdrop Distribution</tspan></text>
    <text id="Pool_Feature_Open_Calaswap_DAO_Feature_Open" data-name="Pool Feature Open
Calaswap DAO Feature Open" transform="translate(878 7240)" fill="#fff" font-size="24" font-family="NotoSans-Bold, Noto Sans" font-weight="700" opacity="0.5"><tspan x="-221.472" y="0">Pool Feature Open</tspan><tspan x="-341.832" y="32">Calaswap DAO Feature Open</tspan></text>
    <rect id="사각형_163" data-name="사각형 163" width="2" height="766" transform="translate(959 6480)" fill="#f8f8f8"/>
    <g id="그룹_326" data-name="그룹 326" transform="translate(600 1202)">
      <rect id="사각형_161" data-name="사각형 161" width="80" height="40" rx="8" transform="translate(320 5238)" fill="#fff"/>
      <text id="_2022" data-name="2022" transform="translate(334 5268)" fill="#3659ea" font-size="24" font-family="NotoSans, Noto Sans"><tspan x="0" y="0">2022</tspan></text>
    </g>
    <g id="그룹_327" data-name="그룹 327" transform="translate(600 1854)">
      <rect id="사각형_161-2" data-name="사각형 161" width="80" height="40" rx="8" transform="translate(320 5238)" fill="#fff"/>
      <text id="_2023" data-name="2023" transform="translate(334 5268)" fill="#3659ea" font-size="24" font-family="NotoSans, Noto Sans"><tspan x="0" y="0">2023</tspan></text>
    </g>
    <g id="그룹_328" data-name="그룹 328" transform="translate(1289 1230)">
      <circle id="타원_16" data-name="타원 16" cx="50" cy="50" r="50" transform="translate(-379 5314)" fill="#fff"/>
      <circle id="타원_6" data-name="타원 6" cx="42" cy="42" r="42" transform="translate(-371 5322)" fill="#3659ea"/>
      <text id="Q2" transform="translate(-351 5375)" fill="#fff" font-size="32" font-family="NotoSans-ExtraBold, Noto Sans" font-weight="800"><tspan x="0" y="0">Q2</tspan></text>
    </g>
    <g id="그룹_329" data-name="그룹 329" transform="translate(3868 1394)">
      <g id="그룹_277" data-name="그룹 277" transform="translate(-2579)">
        <circle id="타원_16-2" data-name="타원 16" cx="50" cy="50" r="50" transform="translate(-379 5314)" fill="rgba(162,181,255,0.7)"/>
        <circle id="타원_6-2" data-name="타원 6" cx="42" cy="42" r="42" transform="translate(-371 5322)" fill="#3659ea"/>
        <text id="Q3" transform="translate(-351 5375)" fill="#fff" font-size="32" font-family="NotoSans-ExtraBold, Noto Sans" font-weight="800"><tspan x="0" y="0">Q3</tspan></text>
      </g>
    </g>
    <g id="그룹_330" data-name="그룹 330" transform="translate(3868 1558)">
      <g id="그룹_277-2" data-name="그룹 277" transform="translate(-2579)">
        <circle id="타원_16-3" data-name="타원 16" cx="50" cy="50" r="50" transform="translate(-379 5314)" fill="rgba(162,181,255,0.7)"/>
        <circle id="타원_6-3" data-name="타원 6" cx="42" cy="42" r="42" transform="translate(-371 5322)" fill="#3659ea"/>
        <text id="Q4" transform="translate(-351 5375)" fill="#fff" font-size="32" font-family="NotoSans-ExtraBold, Noto Sans" font-weight="800"><tspan x="0" y="0">Q4</tspan></text>
      </g>
    </g>
    <g id="그룹_331" data-name="그룹 331" transform="translate(3868 1882)">
      <g id="그룹_277-3" data-name="그룹 277" transform="translate(-2579)">
        <circle id="타원_16-4" data-name="타원 16" cx="50" cy="50" r="50" transform="translate(-379 5314)" fill="rgba(162,181,255,0.7)"/>
        <circle id="타원_6-4" data-name="타원 6" cx="42" cy="42" r="42" transform="translate(-371 5322)" fill="#3659ea"/>
        <text id="Q4-2" data-name="Q4" transform="translate(-351 5375)" fill="#fff" font-size="32" font-family="NotoSans-ExtraBold, Noto Sans" font-weight="800"><tspan x="0" y="0">Q4</tspan></text>
      </g>
    </g>
  </g>
</svg>
