<svg xmlns="http://www.w3.org/2000/svg" width="352" height="625" viewBox="0 0 352 625">
  <g id="그룹_866" data-name="그룹 866" transform="translate(-144 -4760)">
    <g id="그룹_865" data-name="그룹 865" transform="translate(6525 -454)">
      <g id="사각형_223" data-name="사각형 223" transform="translate(-6381 5214)" fill="rgba(119,119,119,0.3)" stroke="#fff" stroke-width="1">
        <rect width="352" height="625" rx="20" stroke="none"/>
        <rect x="0.5" y="0.5" width="351" height="624" rx="19.5" fill="none"/>
      </g>
      <g id="text_box" data-name="text box" transform="translate(-6363 5327)">
        <path id="사각형_219" data-name="사각형 219" d="M10,0H306a10,10,0,0,1,10,10V42a0,0,0,0,1,0,0H0a0,0,0,0,1,0,0V10A10,10,0,0,1,10,0Z" fill="#fff"/>
        <text id="_150_000_000_CLS" data-name="150,000,000 CLS" transform="translate(96 27)" fill="#3659ea" font-size="16" font-family="NotoSans-Bold, Noto Sans" font-weight="700"><tspan x="0" y="0">150,000,000 CLS</tspan></text>
      </g>
      <g id="text_box-2" data-name="text box" transform="translate(-6363 5474)">
        <path id="사각형_219-2" data-name="사각형 219" d="M10,0H306a10,10,0,0,1,10,10V42a0,0,0,0,1,0,0H0a0,0,0,0,1,0,0V10A10,10,0,0,1,10,0Z" fill="#fff"/>
        <text id="_2_850_000_000_CLS" data-name="2,850,000,000 CLS" transform="translate(90 27)" fill="#3659ea" font-size="16" font-family="NotoSans-Bold, Noto Sans" font-weight="700"><tspan x="0" y="0">2,850,000,000 CLS</tspan></text>
      </g>
      <g id="그룹_840" data-name="그룹 840" transform="translate(-6685 63)">
        <text id="_150_million_CLS_for_Initial_Liquidity_and_Treasury_for_Calaswap_Service." data-name="150 million CLS for Initial Liquidity
and Treasury for Calaswap Service." transform="translate(374 5341)" fill="#fff" font-size="14" font-family="NotoSans, Noto Sans"><tspan x="0" y="0">150 million CLS for </tspan><tspan y="0" font-family="NotoSans-Bold, Noto Sans" font-weight="700">Initial Liquidity</tspan><tspan x="0" y="22">and Treasury for Calaswap Service.</tspan></text>
        <g id="그룹_839" data-name="그룹 839" transform="translate(3474 5205) rotate(90)">
          <rect id="사각형_46" data-name="사각형 46" width="12" height="12" transform="translate(125 3120) rotate(-90)" fill="none"/>
          <path id="next_ars" d="M12.389,8.982,6.716,13.945A1.035,1.035,0,0,1,5,13.166V3.239A1.035,1.035,0,0,1,6.717,2.46l5.671,4.963a1.035,1.035,0,0,1,0,1.559Z" transform="translate(122.797 3122.742) rotate(-90)" fill="#f8f8f8"/>
        </g>
      </g>
      <g id="그룹_863" data-name="그룹 863" transform="translate(-6685 210)">
        <text id="As_initial_conditions_20_CLS_tokens_will_be_distributed_per_block." data-name="As initial conditions, 20 CLS tokens
will be distributed per block." transform="translate(374 5341)" fill="#fff" font-size="14" font-family="NotoSans, Noto Sans"><tspan x="0" y="0">As initial conditions, 20 CLS tokens</tspan><tspan x="0" y="22">will be distributed per block.</tspan></text>
        <g id="그룹_839-2" data-name="그룹 839" transform="translate(3474 5205) rotate(90)">
          <rect id="사각형_46-2" data-name="사각형 46" width="12" height="12" transform="translate(125 3120) rotate(-90)" fill="none"/>
          <path id="next_ars-2" data-name="next_ars" d="M12.389,8.982,6.716,13.945A1.035,1.035,0,0,1,5,13.166V3.239A1.035,1.035,0,0,1,6.717,2.46l5.671,4.963a1.035,1.035,0,0,1,0,1.559Z" transform="translate(122.797 3122.742) rotate(-90)" fill="#f8f8f8"/>
        </g>
      </g>
      <g id="사각형_221" data-name="사각형 221" transform="translate(-6363 5327)" fill="none" stroke="#fff" stroke-width="1">
        <rect width="316" height="123" rx="10" stroke="none"/>
        <rect x="0.5" y="0.5" width="315" height="122" rx="9.5" fill="none"/>
      </g>
      <g id="사각형_224" data-name="사각형 224" transform="translate(-6363 5474)" fill="none" stroke="#fff" stroke-width="1">
        <rect width="316" height="345" rx="10" stroke="none"/>
        <rect x="0.5" y="0.5" width="315" height="344" rx="9.5" fill="none"/>
      </g>
      <text id="_3_000_000_000_CLS" data-name="3,000,000,000 CLS" transform="translate(-6309 5288)" fill="#fff" font-size="24" font-family="NotoSans-ExtraBold, Noto Sans" font-weight="800"><tspan x="0" y="0">3,000,000,000 CLS</tspan></text>
      <g id="그룹_864" data-name="그룹 864" transform="translate(-10 -249)">
        <rect id="사각형_225" data-name="사각형 225" width="280" height="42" rx="10" transform="translate(-6335 5858)" fill="rgba(137,144,159,0.5)"/>
        <rect id="사각형_226" data-name="사각형 226" width="280" height="42" rx="10" transform="translate(-6335 5908)" fill="rgba(137,144,159,0.5)"/>
        <rect id="사각형_227" data-name="사각형 227" width="280" height="42" rx="10" transform="translate(-6335 5958)" fill="rgba(137,144,159,0.5)"/>
        <rect id="사각형_228" data-name="사각형 228" width="280" height="42" rx="10" transform="translate(-6335 6008)" fill="rgba(137,144,159,0.5)"/>
        <text id="Farm_Launchpools" data-name="Farm / Launchpools" transform="translate(-6321 5885)" fill="#fff" font-size="14" font-family="NotoSans, Noto Sans"><tspan x="0" y="0">Farm / Launchpools</tspan></text>
        <text id="Referral" transform="translate(-6321 5935)" fill="#fff" font-size="14" font-family="NotoSans, Noto Sans"><tspan x="0" y="0">Referral</tspan></text>
        <text id="SAFU" transform="translate(-6321 5985)" fill="#fff" font-size="14" font-family="NotoSans, Noto Sans"><tspan x="0" y="0">SAFU</tspan></text>
        <text id="Team" transform="translate(-6321 6035)" fill="#fff" font-size="14" font-family="NotoSans, Noto Sans"><tspan x="0" y="0">Team</tspan></text>
        <text id="_80.00_per_block" data-name="80.00% per block" transform="translate(-6067 5885)" fill="#fff" font-size="16" font-family="NotoSans-Bold, Noto Sans" font-weight="700"><tspan x="-110.832" y="0">80.00%</tspan><tspan y="0" font-size="12"> </tspan><tspan y="0" font-size="12" font-family="NotoSans, Noto Sans" font-weight="400">per block</tspan></text>
        <text id="_5.00_per_block" data-name="5.00% per block" transform="translate(-6067 5935)" fill="#fff" font-size="16" font-family="NotoSans-Bold, Noto Sans" font-weight="700"><tspan x="-101.68" y="0">5.00%</tspan><tspan y="0" font-size="12"> </tspan><tspan y="0" font-size="12" font-family="NotoSans, Noto Sans" font-weight="400">per block</tspan></text>
        <text id="_1.00_per_block" data-name="1.00% per block" transform="translate(-6067 5985)" fill="#fff" font-size="16" font-family="NotoSans-Bold, Noto Sans" font-weight="700"><tspan x="-101.68" y="0">1.00%</tspan><tspan y="0" font-size="12"> </tspan><tspan y="0" font-size="12" font-family="NotoSans, Noto Sans" font-weight="400">per block</tspan></text>
        <text id="_14.00_per_block" data-name="14.00% per block" transform="translate(-6067 6035)" fill="#fff" font-size="16" font-family="NotoSans-Bold, Noto Sans" font-weight="700"><tspan x="-110.832" y="0">14.00%</tspan><tspan y="0" font-size="12"> </tspan><tspan y="0" font-size="12" font-family="NotoSans, Noto Sans" font-weight="400">per block</tspan></text>
      </g>
    </g>
  </g>
</svg>
