<svg xmlns="http://www.w3.org/2000/svg" width="345" height="480" viewBox="0 0 345 480">
  <g id="그룹_480" data-name="그룹 480" transform="translate(4083 -5509)">
    <text id="Calaswap_Service_Development" data-name="Calaswap Service Development" transform="translate(-4003 5603)" fill="#f8f8f8" font-size="16" font-family="NotoSans-Bold, Noto Sans" font-weight="700"><tspan x="0" y="0">Calaswap Service Development</tspan></text>
    <text id="Calaswap_Beta_Version_Eisclosure" data-name="Calaswap Beta Version Eisclosure" transform="translate(-4003 5699)" fill="#f8f8f8" font-size="16" font-family="NotoSans-Bold, Noto Sans" font-weight="700" opacity="0.5"><tspan x="0" y="0">Calaswap Beta Version Eisclosure</tspan></text>
    <text id="Calaswap_Launch_Farms_Feature_Open_Beta_Tester_Airdrop_Distribution" data-name="Calaswap Launch
Farms Feature Open
Beta Tester Airdrop Distribution" transform="translate(-4003 5771)" fill="#f8f8f8" font-size="16" font-family="NotoSans-Bold, Noto Sans" font-weight="700" opacity="0.5"><tspan x="0" y="0">Calaswap Launch</tspan><tspan x="0" y="24">Farms Feature Open</tspan><tspan x="0" y="48">Beta Tester Airdrop Distribution</tspan></text>
    <text id="Pool_Feature_Open_Calaswap_DAO_Feature_Open" data-name="Pool Feature Open
Calaswap DAO Feature Open" transform="translate(-4003 5951)" fill="#f8f8f8" font-size="16" font-family="NotoSans-Bold, Noto Sans" font-weight="700" opacity="0.5"><tspan x="0" y="0">Pool Feature Open</tspan><tspan x="0" y="24">Calaswap DAO Feature Open</tspan></text>
    <rect id="사각형_176" data-name="사각형 176" width="2" height="416" transform="translate(-4052 5541)" fill="#f8f8f8"/>
    <g id="그룹_475" data-name="그룹 475" transform="translate(-3)">
      <rect id="사각형_161" data-name="사각형 161" width="60" height="32" rx="8" transform="translate(-4078 5509)" fill="#fff"/>
      <text id="_2022" data-name="2022" transform="translate(-4065 5531)" fill="#3659ea" font-size="16" font-family="NotoSans, Noto Sans"><tspan x="0" y="0">2022</tspan></text>
    </g>
    <g id="그룹_474" data-name="그룹 474" transform="translate(-3 -292)">
      <rect id="사각형_161-2" data-name="사각형 161" width="60" height="32" rx="8" transform="translate(-4078 6161)" fill="#fff"/>
      <text id="_2023" data-name="2023" transform="translate(-4065 6183)" fill="#3659ea" font-size="16" font-family="NotoSans, Noto Sans"><tspan x="0" y="0">2023</tspan></text>
    </g>
    <g id="그룹_476" data-name="그룹 476" transform="translate(5 -46)">
      <circle id="타원_16" data-name="타원 16" cx="32" cy="32" r="32" transform="translate(-4088 5611)" fill="#fff"/>
      <circle id="타원_6" data-name="타원 6" cx="27" cy="27" r="27" transform="translate(-4083 5616)" fill="#3659ea"/>
      <text id="Q2" transform="translate(-4069 5651)" fill="#fff" font-size="20" font-family="NotoSans-ExtraBold, Noto Sans" font-weight="800"><tspan x="0" y="0">Q2</tspan></text>
    </g>
    <g id="그룹_477" data-name="그룹 477" transform="translate(5 50)">
      <path id="패스_213" data-name="패스 213" d="M32,0A32,32,0,1,1,0,32,32,32,0,0,1,32,0Z" transform="translate(-4088 5611)" fill="rgba(162,181,255,0.7)"/>
      <circle id="타원_6-2" data-name="타원 6" cx="27" cy="27" r="27" transform="translate(-4083 5616)" fill="#3659ea"/>
      <text id="Q3" transform="translate(-4069 5651)" fill="#fff" font-size="20" font-family="NotoSans-ExtraBold, Noto Sans" font-weight="800"><tspan x="0" y="0">Q3</tspan></text>
    </g>
    <g id="그룹_478" data-name="그룹 478" transform="translate(5 146)">
      <path id="패스_213-2" data-name="패스 213" d="M32,0A32,32,0,1,1,0,32,32,32,0,0,1,32,0Z" transform="translate(-4088 5611)" fill="rgba(162,181,255,0.7)"/>
      <circle id="타원_6-3" data-name="타원 6" cx="27" cy="27" r="27" transform="translate(-4083 5616)" fill="#3659ea"/>
      <text id="Q4" transform="translate(-4069 5651)" fill="#fff" font-size="20" font-family="NotoSans-ExtraBold, Noto Sans" font-weight="800"><tspan x="0" y="0">Q4</tspan></text>
    </g>
    <g id="그룹_479" data-name="그룹 479" transform="translate(5 314)">
      <path id="패스_213-3" data-name="패스 213" d="M32,0A32,32,0,1,1,0,32,32,32,0,0,1,32,0Z" transform="translate(-4088 5611)" fill="rgba(162,181,255,0.7)"/>
      <circle id="타원_6-4" data-name="타원 6" cx="27" cy="27" r="27" transform="translate(-4083 5616)" fill="#3659ea"/>
      <text id="Q4-2" data-name="Q4" transform="translate(-4069 5651)" fill="#fff" font-size="20" font-family="NotoSans-ExtraBold, Noto Sans" font-weight="800"><tspan x="0" y="0">Q4</tspan></text>
    </g>
  </g>
</svg>
