<svg xmlns="http://www.w3.org/2000/svg" width="368" height="590" viewBox="0 0 368 590">
  <g id="그룹_833" data-name="그룹 833" transform="translate(-136 -4580)">
    <text id="_As_initial_conditions_20_CLS_tokens_will_be_distributed_per_block." data-name="* As initial conditions, 20 CLS tokens will be distributed per block." transform="translate(320 5166)" fill="#fff" font-size="12" font-family="NotoSans, Noto Sans"><tspan x="-183.144" y="0">* As initial conditions, 20 CLS tokens will be distributed per block.</tspan></text>
    <g id="그룹_811" data-name="그룹 811" transform="translate(0 -823)">
      <g id="그룹_810" data-name="그룹 810">
        <g id="text_box" data-name="text box" transform="translate(144 5403)">
          <path id="패스_215" data-name="패스 215" d="M4.632,0H347.368C349.926,0,352,3.2,352,7.149v27.7C352,38.8,349.926,42,347.368,42H4.632C2.074,42,0,38.8,0,34.851V7.149C0,3.2,2.074,0,4.632,0Z" fill="rgba(137,144,159,0.5)"/>
        </g>
        <text id="Name" transform="translate(163 5430)" fill="#fff" font-size="14" font-family="NotoSans, Noto Sans"><tspan x="0" y="0">Name</tspan></text>
        <text id="Calaswap_Token_CLS_" data-name="Calaswap Token (CLS)" transform="translate(236 5430)" fill="#f8f8f8" font-size="16" font-family="NotoSans-Bold, Noto Sans" font-weight="700"><tspan x="0" y="0">Calaswap Token (CLS)</tspan></text>
        <rect id="사각형_193" data-name="사각형 193" width="1" height="22" transform="translate(219 5413)" fill="#fff"/>
      </g>
      <g id="그룹_809" data-name="그룹 809" transform="translate(0 -13)">
        <g id="text_box-2" data-name="text box" transform="translate(144 5466)">
          <rect id="사각형_1" data-name="사각형 1" width="352" height="42" rx="8" fill="rgba(137,144,159,0.5)"/>
        </g>
        <text id="BEP-20" transform="translate(236 5493)" fill="#f8f8f8" font-size="16" font-family="NotoSans-Bold, Noto Sans" font-weight="700"><tspan x="0" y="0">BEP-20</tspan></text>
        <text id="Chain" transform="translate(182 5493)" fill="#fff" font-size="14" font-family="NotoSans, Noto Sans"><tspan x="-18.809" y="0">Chain</tspan></text>
        <rect id="사각형_218" data-name="사각형 218" width="1" height="22" transform="translate(219 5476)" fill="#fff"/>
      </g>
      <g id="그룹_808" data-name="그룹 808" transform="translate(0 -26)">
        <g id="text_box-3" data-name="text box" transform="translate(144 5529)">
          <rect id="사각형_1-2" data-name="사각형 1" width="352" height="135" rx="8" fill="rgba(137,144,159,0.5)"/>
        </g>
        <text id="_3_000_000_000_CLS" data-name="3,000,000,000 CLS" transform="translate(236 5556)" fill="#f8f8f8" font-size="16" font-family="NotoSans-Bold, Noto Sans" font-weight="700"><tspan x="0" y="0">3,000,000,000 CLS</tspan></text>
        <text id="_150_million_CLS_for_Initial_Liquidity_and_Treasury_for_Calaswap_Service._2_850_million_CLS_will_be_distributed_as_follows." data-name="150 million CLS for Initial Liquidity
and Treasury for Calaswap Service.
2,850 million CLS will be distributed as follows." transform="translate(236 5573)" fill="#fff" font-size="14" font-family="NotoSans, Noto Sans"><tspan x="0" y="15">150 million CLS for Initial Liquidity</tspan><tspan x="0" y="35">and Treasury for Calaswap Service.</tspan><tspan x="0" y="55">2,850 million CLS will be distributed </tspan><tspan x="0" y="75">as follows.</tspan></text>
        <text id="Max_Supply" data-name="Max
Supply" transform="translate(182 5592)" fill="#fff" font-size="14" font-family="NotoSans, Noto Sans"><tspan x="-13.979" y="0">Max</tspan><tspan x="-22.155" y="20">Supply</tspan></text>
        <rect id="사각형_195" data-name="사각형 195" width="1" height="115" transform="translate(219 5539)" fill="#fff"/>
      </g>
    </g>
    <g id="그룹_819" data-name="그룹 819" transform="translate(0 -823)">
      <g id="그룹_816" data-name="그룹 816">
        <g id="text_box-4" data-name="text box" transform="translate(144 5702)">
          <path id="패스_215-2" data-name="패스 215" d="M4.632,0H347.368C349.926,0,352,3.2,352,7.149v27.7C352,38.8,349.926,42,347.368,42H4.632C2.074,42,0,38.8,0,34.851V7.149C0,3.2,2.074,0,4.632,0Z" fill="rgba(137,144,159,0.5)"/>
        </g>
        <text id="Initial_Liquidity" data-name="Initial Liquidity" transform="translate(158 5729)" fill="#fff" font-size="14" font-family="NotoSans, Noto Sans"><tspan x="0" y="0">Initial Liquidity</tspan></text>
        <text id="_5.00_" data-name="5.00%" transform="translate(300 5729)" fill="#fff" font-size="14" font-family="NotoSans-Bold, Noto Sans" font-weight="700"><tspan x="0" y="0">5.00%</tspan></text>
        <text id="_150_000_000" data-name="150,000,000" transform="translate(396 5729)" fill="#fff" font-size="14" font-family="NotoSans-Bold, Noto Sans" font-weight="700"><tspan x="0" y="0">150,000,000</tspan></text>
        <rect id="사각형_198" data-name="사각형 198" width="1" height="22" transform="translate(269 5712)" fill="#fff"/>
      </g>
      <g id="그룹_812" data-name="그룹 812" transform="translate(0 -15)">
        <g id="text_box-5" data-name="text box" transform="translate(144 5767)">
          <path id="패스_215-3" data-name="패스 215" d="M4.632,0H347.368C349.926,0,352,3.2,352,7.149v27.7C352,38.8,349.926,42,347.368,42H4.632C2.074,42,0,38.8,0,34.851V7.149C0,3.2,2.074,0,4.632,0Z" fill="rgba(137,144,159,0.5)"/>
        </g>
        <text id="Farm_Launchpools" data-name="Farm
Launchpools" transform="translate(207 5786)" fill="#fff" font-size="14" font-family="NotoSans, Noto Sans"><tspan x="-16.996" y="0">Farm</tspan><tspan x="-41.867" y="16">Launchpools</tspan></text>
        <text id="_5.00_2" data-name="5.00%" transform="translate(300 5794)" fill="#fff" font-size="14" font-family="NotoSans-Bold, Noto Sans" font-weight="700"><tspan x="0" y="0">5.00%</tspan></text>
        <text id="_150_000_000-2" data-name="150,000,000" transform="translate(396 5794)" fill="#fff" font-size="14" font-family="NotoSans-Bold, Noto Sans" font-weight="700"><tspan x="0" y="0">150,000,000</tspan></text>
        <rect id="사각형_202" data-name="사각형 202" width="1" height="22" transform="translate(269 5777)" fill="#fff"/>
      </g>
      <g id="그룹_813" data-name="그룹 813" transform="translate(0 -26)">
        <g id="text_box-6" data-name="text box" transform="translate(144 5828)">
          <path id="패스_215-4" data-name="패스 215" d="M4.632,0H347.368C349.926,0,352,3.2,352,7.149v27.7C352,38.8,349.926,42,347.368,42H4.632C2.074,42,0,38.8,0,34.851V7.149C0,3.2,2.074,0,4.632,0Z" fill="rgba(137,144,159,0.5)"/>
        </g>
        <text id="Referral" transform="translate(181 5855)" fill="#fff" font-size="14" font-family="NotoSans, Noto Sans"><tspan x="0" y="0">Referral</tspan></text>
        <text id="_4.75_" data-name="4.75%" transform="translate(300 5855)" fill="#fff" font-size="14" font-family="NotoSans-Bold, Noto Sans" font-weight="700"><tspan x="0" y="0">4.75%</tspan></text>
        <text id="_142_500_000" data-name="142,500,000" transform="translate(396 5855)" fill="#fff" font-size="14" font-family="NotoSans-Bold, Noto Sans" font-weight="700"><tspan x="0" y="0">142,500,000</tspan></text>
        <rect id="사각형_203" data-name="사각형 203" width="1" height="22" transform="translate(269 5838)" fill="#fff"/>
      </g>
      <g id="그룹_814" data-name="그룹 814" transform="translate(0 -39)">
        <g id="text_box-7" data-name="text box" transform="translate(144 5891)">
          <path id="패스_215-5" data-name="패스 215" d="M4.632,0H347.368C349.926,0,352,3.2,352,7.149v27.7C352,38.8,349.926,42,347.368,42H4.632C2.074,42,0,38.8,0,34.851V7.149C0,3.2,2.074,0,4.632,0Z" fill="rgba(137,144,159,0.5)"/>
        </g>
        <text id="SAFU" transform="translate(190 5918)" fill="#fff" font-size="14" font-family="NotoSans, Noto Sans"><tspan x="0" y="0">SAFU</tspan></text>
        <text id="_0.95_" data-name="0.95%" transform="translate(300 5918)" fill="#fff" font-size="14" font-family="NotoSans-Bold, Noto Sans" font-weight="700"><tspan x="0" y="0">0.95%</tspan></text>
        <text id="_28_500_000" data-name="28,500,000" transform="translate(400 5918)" fill="#fff" font-size="14" font-family="NotoSans-Bold, Noto Sans" font-weight="700"><tspan x="0" y="0">28,500,000</tspan></text>
        <rect id="사각형_204" data-name="사각형 204" width="1" height="22" transform="translate(269 5901)" fill="#fff"/>
      </g>
      <g id="그룹_815" data-name="그룹 815" transform="translate(0 -52)">
        <g id="text_box-8" data-name="text box" transform="translate(144 5954)">
          <path id="패스_215-6" data-name="패스 215" d="M4.632,0H347.368C349.926,0,352,3.2,352,7.149v27.7C352,38.8,349.926,42,347.368,42H4.632C2.074,42,0,38.8,0,34.851V7.149C0,3.2,2.074,0,4.632,0Z" fill="rgba(137,144,159,0.5)"/>
        </g>
        <text id="Team" transform="translate(189 5981)" fill="#fff" font-size="14" font-family="NotoSans, Noto Sans"><tspan x="0" y="0">Team</tspan></text>
        <text id="_13.30_" data-name="13.30%" transform="translate(296 5981)" fill="#fff" font-size="14" font-family="NotoSans-Bold, Noto Sans" font-weight="700"><tspan x="0" y="0">13.30%</tspan></text>
        <text id="_399_000_000" data-name="399,000,000" transform="translate(396 5981)" fill="#fff" font-size="14" font-family="NotoSans-Bold, Noto Sans" font-weight="700"><tspan x="0" y="0">399,000,000</tspan></text>
        <rect id="사각형_205" data-name="사각형 205" width="1" height="22" transform="translate(269 5964)" fill="#fff"/>
      </g>
    </g>
  </g>
</svg>
